<svg width="27" height="23" viewBox="0 0 27 23" fill="none" xmlns="http://www.w3.org/2000/svg">
<path d="M4.97422 5.79998C4.97422 4.8452 5.34165 3.92952 5.99568 3.25439C6.64972 2.57926 7.53678 2.19998 8.46172 2.19998C9.38666 2.19998 10.2737 2.57926 10.9278 3.25439C11.5818 3.92952 11.9492 4.8452 11.9492 5.79998C11.9492 6.75476 11.5818 7.67043 10.9278 8.34556C10.2737 9.02069 9.38666 9.39998 8.46172 9.39998C7.53678 9.39998 6.64972 9.02069 5.99568 8.34556C5.34165 7.67043 4.97422 6.75476 4.97422 5.79998ZM8.46172 0.599976C7.12569 0.599976 5.84438 1.14783 4.89967 2.12302C3.95495 3.09821 3.42422 4.42085 3.42422 5.79998C3.42422 7.1791 3.95495 8.50174 4.89967 9.47693C5.84438 10.4521 7.12569 11 8.46172 11C9.79775 11 11.0791 10.4521 12.0238 9.47693C12.9685 8.50174 13.4992 7.1791 13.4992 5.79998C13.4992 4.42085 12.9685 3.09821 12.0238 2.12302C11.0791 1.14783 9.79775 0.599976 8.46172 0.599976ZM17.2766 19.232C18.1105 19.584 19.1598 19.8 20.4742 19.8C23.3898 19.8 25.0018 18.7312 25.8512 17.5056C26.2943 16.8624 26.5722 16.1137 26.6587 15.3296C26.6665 15.2567 26.6716 15.1836 26.6742 15.1104V15C26.6742 14.6848 26.6141 14.3727 26.4972 14.0815C26.3804 13.7904 26.2091 13.5258 25.9932 13.3029C25.7773 13.0801 25.521 12.9033 25.239 12.7827C24.9569 12.6621 24.6545 12.6 24.3492 12.6H17.1727C17.5447 13.064 17.8237 13.6064 17.9865 14.2H24.3492C24.5548 14.2 24.7519 14.2843 24.8972 14.4343C25.0426 14.5843 25.1242 14.7878 25.1242 15V15.0864L25.1165 15.1664C25.0571 15.6737 24.876 16.1577 24.5895 16.5744C24.0826 17.3088 22.9821 18.2 20.4742 18.2C19.3396 18.2 18.4933 18.0176 17.8594 17.7504C17.7323 18.1984 17.5478 18.704 17.2766 19.232ZM0.324219 15.8C0.324219 14.9513 0.650825 14.1374 1.23219 13.5372C1.81355 12.9371 2.60205 12.6 3.42422 12.6H13.4992C14.3214 12.6 15.1099 12.9371 15.6912 13.5372C16.2726 14.1374 16.5992 14.9513 16.5992 15.8V15.9344C16.5992 15.9504 16.5992 15.9712 16.5961 15.9984C16.5773 16.3152 16.5332 16.6298 16.4644 16.9392C16.3326 17.528 16.0707 18.3152 15.5421 19.1056C14.4556 20.728 12.3569 22.2 8.46172 22.2C4.56657 22.2 2.46787 20.728 1.38132 19.1056C0.809096 18.2452 0.4523 17.2519 0.342819 16.2144C0.333557 16.1213 0.327353 16.0279 0.324219 15.9344V15.8992V15.8ZM1.87422 15.896V15.9248L1.88507 16.0576C1.96905 16.8246 2.23411 17.5586 2.65697 18.1952C3.41182 19.3216 4.99437 20.6 8.46172 20.6C11.9291 20.6 13.5116 19.3216 14.2665 18.1952C14.6894 17.5586 14.9545 16.8246 15.0384 16.0576C15.0435 16.0135 15.0466 15.9692 15.0477 15.9248L15.0492 15.8976V15.8C15.0492 15.3756 14.8859 14.9687 14.5952 14.6686C14.3046 14.3685 13.9103 14.2 13.4992 14.2H3.42422C3.01313 14.2 2.61888 14.3685 2.3282 14.6686C2.03752 14.9687 1.87422 15.3756 1.87422 15.8V15.896ZM18.1492 6.99998C18.1492 6.36346 18.3942 5.75301 18.8302 5.30292C19.2662 4.85283 19.8576 4.59998 20.4742 4.59998C21.0908 4.59998 21.6822 4.85283 22.1182 5.30292C22.5543 5.75301 22.7992 6.36346 22.7992 6.99998C22.7992 7.6365 22.5543 8.24694 22.1182 8.69703C21.6822 9.14712 21.0908 9.39998 20.4742 9.39998C19.8576 9.39998 19.2662 9.14712 18.8302 8.69703C18.3942 8.24694 18.1492 7.6365 18.1492 6.99998ZM20.4742 2.99998C19.4465 2.99998 18.4609 3.4214 17.7342 4.17155C17.0075 4.92169 16.5992 5.93911 16.5992 6.99998C16.5992 8.06084 17.0075 9.07826 17.7342 9.8284C18.4609 10.5785 19.4465 11 20.4742 11C21.5019 11 22.4876 10.5785 23.2143 9.8284C23.941 9.07826 24.3492 8.06084 24.3492 6.99998C24.3492 5.93911 23.941 4.92169 23.2143 4.17155C22.4876 3.4214 21.5019 2.99998 20.4742 2.99998Z" fill="white"/>
</svg>
