<?xml version="1.0" encoding="utf-8"?>
<!-- Generator: Adobe Illustrator 25.1.0, SVG Export Plug-In . SVG Version: 6.00 Build 0)  -->
<svg version="1.1" id="Layer_1" xmlns="http://www.w3.org/2000/svg" xmlns:xlink="http://www.w3.org/1999/xlink" x="0px" y="0px"
	 viewBox="0 0 60 60" style="enable-background:new 0 0 60 60;" xml:space="preserve">
<style type="text/css">
	.st0{fill:#921A1D;}
</style>
<path class="st0" d="M47,38.9c-0.8,0-1.4,0.6-1.4,1.4v3h-3c-0.8,0-1.4,0.6-1.4,1.4c0,0.8,0.6,1.4,1.4,1.4h3v3c0,1.9,2.8,1.9,2.8,0
	v-3h3c0.8,0,1.4-0.6,1.4-1.4c0-0.8-0.6-1.4-1.4-1.4h-3v-3C48.5,39.5,47.8,38.9,47,38.9z"/>
<path class="st0" d="M47.1,35.2c5.2,0,9.4,4.2,9.4,9.4c0,5.2-4.2,9.4-9.4,9.4s-9.4-4.2-9.4-9.4C37.7,39.4,41.9,35.2,47.1,35.2z
	 M8.4,25.9h43.2l-1,7.1c-1.1-0.3-2.3-0.5-3.5-0.5c-2.2,0-4.2,0.6-6,1.6v-2.7c0-0.8-0.6-1.4-1.4-1.4c-0.8,0-1.4,0.6-1.4,1.4v4.8
	c-2.1,2.2-3.4,5.2-3.4,8.5c0,1.6,0.3,3,0.8,4.4H14.5c-1,0-1.7-0.2-2.2-0.6c-0.5-0.4-0.8-0.9-1-1.9L8.4,25.9z M5,19h50
	c0.9,0,1.5,0.6,1.5,1.3v1.5c0,0.7-0.6,1.3-1.5,1.3H5c-0.9,0-1.4-0.6-1.4-1.3v-1.5C3.5,19.6,4.1,19,5,19z M21.8,6h16.5
	c1,0,1.3,0.2,1.8,0.5c0.4,0.4,0.9,1.1,1.6,2.1l5.2,7.6H13.2l5.2-7.6c0.7-1.1,1.2-1.8,1.6-2.1C20.4,6.1,20.7,6,21.8,6z M21.8,3.2
	c-1.5,0-2.7,0.4-3.6,1.2C17.3,5.1,16.8,6,16.1,7l-6.3,9.1H5c-2.3,0-4.2,1.8-4.2,4.1v1.5c0,2.3,1.9,4.1,4.2,4.1h0.6l3,21
	c0.2,1.5,0.9,2.8,2,3.7c1.1,0.9,2.5,1.3,3.9,1.3h22.8c2.2,3,5.8,5,9.8,5c6.7,0,12.2-5.5,12.2-12.2c0-4.5-2.4-8.4-6-10.5l1.2-8.2H55
	c2.3,0,4.2-1.8,4.2-4.1v-1.5c0-2.3-1.9-4.1-4.2-4.1h-4.8L43.9,7c-0.7-1-1.2-1.9-2.1-2.7c-0.9-0.8-2.1-1.2-3.6-1.2L21.8,3.2L21.8,3.2
	z"/>
<path class="st0" d="M20.3,29.9c-0.8,0-1.4,0.6-1.4,1.4v11.8c0,0.8,0.6,1.4,1.4,1.4c0.8,0,1.4-0.6,1.4-1.4V31.3
	C21.7,30.6,21.1,29.9,20.3,29.9z"/>
<path class="st0" d="M30,29.9c-0.8,0-1.4,0.6-1.4,1.4v11.8c0,0.8,0.6,1.4,1.4,1.4c0.8,0,1.4-0.6,1.4-1.4V31.3
	C31.4,30.6,30.8,29.9,30,29.9z"/>
</svg>
