<?xml version="1.0" encoding="utf-8"?>
<!-- Generator: Adobe Illustrator 25.1.0, SVG Export Plug-In . SVG Version: 6.00 Build 0)  -->
<svg version="1.1" id="Layer_1" xmlns="http://www.w3.org/2000/svg" xmlns:xlink="http://www.w3.org/1999/xlink" x="0px" y="0px"
	 viewBox="0 0 60 60" style="enable-background:new 0 0 60 60;" xml:space="preserve">
<style type="text/css">
	.st0{fill-rule:evenodd;clip-rule:evenodd;}
</style>
<g>
	<path class="st0" d="M23,9c2.6,0,4.7,2.1,4.7,4.7s-2.1,4.7-4.7,4.7s-4.7-2.1-4.7-4.7C18.3,11.2,20.4,9,23,9L23,9z M9.3,21.5
		c1.8,0,3.3,1.5,3.3,3.3c0,1.8-1.5,3.3-3.3,3.3S6,26.7,6,24.8C6,23,7.5,21.5,9.3,21.5L9.3,21.5z M4.8,29.8c0.3-0.3,0.6-0.6,1-0.6v0
		c2.3-0.4,4.6-0.3,6.9,0c0.4,0,0.8,0.2,1.1,0.6c1.5,2.1,2.2,3.4,3.1,5.4c0.3,0.6,0.7,1.4,0.9,1.9c0.3,0.7,0.1,1.5-0.6,1.9
		c-0.7,0.3-1.5,0.1-1.9-0.6c-0.4-0.9-0.7-1.5-1-2c-0.6-1.2-1-2.2-1.7-3.2v7.7v0.4v7.8c0,0.8-0.7,1.4-1.5,1.4l0,0
		c-0.8,0-1.5-0.6-1.5-1.4v-7.8H8.8v7.8c0,0.8-0.7,1.4-1.5,1.4l0,0c-0.8,0-1.5-0.6-1.5-1.4v-7.8v-0.4v-7.2c-0.6,1-1.1,2-1.7,3.3
		c-0.3,0.6-0.6,1.2-1,2.1c-0.4,0.7-1.3,1-2,0.7c-0.7-0.4-1-1.3-0.7-2c0.3-0.6,0.7-1.4,1-2.1C2.5,33.5,3.2,32,4.8,29.8L4.8,29.8z
		 M50.7,16.6c1.8,0,3.3,1.5,3.3,3.3c0,1.8-1.5,3.3-3.3,3.3c-1.8,0-3.3-1.5-3.3-3.3C47.3,18.1,48.8,16.6,50.7,16.6L50.7,16.6z
		 M54.1,24.5c0.4,0,0.8,0.2,1.1,0.6c1.5,2.1,2.6,4.8,3.5,6.8c0.3,0.7,0.7,1.4,0.9,1.9c0.3,0.7,0.1,1.5-0.6,1.9
		c-0.7,0.3-1.5,0.1-1.9-0.6c-0.4-0.9-0.7-1.5-1-2c-0.6-1.3-1.3-2.9-2-4.4v1.2l2.4,10.4h-2.4V49c0,0.8-0.7,1.4-1.5,1.4l0,0
		c-0.8,0-1.5-0.6-1.5-1.4v-8.7h-0.9V49c0,0.8-0.7,1.4-1.5,1.4l0,0c-0.8,0-1.5-0.6-1.5-1.4v-8.7H45l2.1-10.2v-0.9
		c-0.3,0.6-0.5,1.3-1,2.3c-0.3,0.6-0.4,0.8-0.8,1.8c-0.4,0.7-1.3,1-2,0.7c-0.7-0.4-1-1.3-0.7-2c0.3-0.6,0.5-1,0.8-1.7
		c1-2.2,1.1-2.8,2.7-5c0.3-0.3,0.6-0.6,1-0.6v0C49.4,24.1,51.7,24.1,54.1,24.5L54.1,24.5z M36.2,9c2.6,0,4.7,2.1,4.7,4.7
		s-2.1,4.7-4.7,4.7s-4.7-2.1-4.7-4.7C31.5,11.2,33.6,9,36.2,9L36.2,9z M36.9,42v6.9c0,1.1,1,2,2.2,2l0,0c1.2,0,2.2-0.9,2.2-2V42h3.1
		l-1.5-7.3c-0.6-0.3-1-0.8-1.2-1.4c-0.2-0.6-0.2-1.3,0.1-1.9c0.1-0.2,0.2-0.4,0.3-0.5l-0.9-4.4v-0.4c0.6,1.1,1.2,2,1.7,3.1
		c0.2-0.4,0.3-0.7,0.4-1c0.5-1.1,0.8-1.9,1.9-3.4c-0.7-1.2-1.4-2.4-2.5-3.8c-0.4-0.5-1-0.8-1.5-0.8c-3.3-0.6-6.5-0.6-9.5,0v0
		c-0.5,0-0.9,0.2-1.3,0.6c1,1.4,1.7,2.5,2.4,3.7c0.7,1.2,1.3,2.5,2,3.9c0.2,0.5,0.5,1,0.7,1.5c0.3,0.5,0.5,1,0.7,1.4
		c0.3,0.7,0.4,1.4,0.2,2.1c-0.2,0.7-0.7,1.3-1.4,1.6s-1.4,0.4-2.1,0.2C32,35,31.4,34.5,31,33.8c-0.3-0.6-1.6-3.2-1.8-3.6L28.5,42
		h2.9v6.9c0,1.1,1,2,2.2,2l0,0c1.2,0,2.2-0.9,2.2-2V42H36.9L36.9,42z M23.5,37.3v11.6c0,1.1,1,2,2.2,2l0,0c1.2,0,2.2-0.9,2.2-2V37.3
		l0,0V26c0.9,1.5,1.6,2.9,2.4,4.6c0.4,0.7,0.8,1.6,1.4,2.9c0.5,1,1.7,1.4,2.7,0.9c1-0.5,1.4-1.7,0.9-2.7c-0.4-0.8-0.9-1.9-1.4-2.8
		c-1.4-2.9-2.3-4.9-4.6-7.9c-0.4-0.5-0.9-0.8-1.5-0.8c-1.6-0.4-9.9-1.1-11.3,0.8c-2,2.8-3,4.7-4.2,7.2c0.2,0,0.4,0,0.6,0.1
		c0.3,0,0.6,0.1,0.9,0.3c0.3,0.2,0.6,0.4,0.8,0.7c0.4,0.5,0.7,1,1,1.5l0-0.1c0.9-1.9,1.6-3.4,2.7-5.1v10.4c0.1,0.3,0.3,0.6,0.4,0.8
		c0.3,0.6,0.3,1.2,0.1,1.8c-0.1,0.3-0.3,0.6-0.5,0.8v9.6c0,1.1,1,2,2.2,2l0,0c1.2,0,2.2-0.9,2.2-2V37.3H23.5L23.5,37.3z"/>
</g>
</svg>
