<svg width="27" height="27" viewBox="0 0 27 27" fill="none" xmlns="http://www.w3.org/2000/svg">
<mask id="mask0_10_207" style="mask-type:alpha" maskUnits="userSpaceOnUse" x="0" y="0" width="27" height="27">
<rect width="26.5349" height="26.8525" fill="#D9D9D9"/>
</mask>
<g mask="url(#mask0_10_207)">
<path d="M13.2674 17.9016L17.6899 13.4262L13.2674 8.95079L11.7196 10.5172L13.4886 12.3073H8.84496V14.545H13.4886L11.7196 16.3352L13.2674 17.9016ZM13.2674 24.6147C11.738 24.6147 10.3007 24.321 8.95552 23.7336C7.61035 23.1462 6.44024 22.349 5.44518 21.3421C4.45012 20.3351 3.66237 19.151 3.08192 17.7897C2.50147 16.4285 2.21124 14.9739 2.21124 13.4262C2.21124 11.8785 2.50147 10.4239 3.08192 9.06267C3.66237 7.7014 4.45012 6.51728 5.44518 5.51031C6.44024 4.50335 7.61035 3.70617 8.95552 3.11877C10.3007 2.53137 11.738 2.23767 13.2674 2.23767C14.7969 2.23767 16.2342 2.53137 17.5793 3.11877C18.9245 3.70617 20.0946 4.50335 21.0897 5.51031C22.0847 6.51728 22.8725 7.7014 23.4529 9.06267C24.0334 10.4239 24.3236 11.8785 24.3236 13.4262C24.3236 14.9739 24.0334 16.4285 23.4529 17.7897C22.8725 19.151 22.0847 20.3351 21.0897 21.3421C20.0946 22.349 18.9245 23.1462 17.5793 23.7336C16.2342 24.321 14.7969 24.6147 13.2674 24.6147ZM13.2674 22.377C15.7366 22.377 17.8281 21.5099 19.5418 19.7757C21.2555 18.0415 22.1124 15.925 22.1124 13.4262C22.1124 10.9274 21.2555 8.81093 19.5418 7.07671C17.8281 5.34249 15.7366 4.47538 13.2674 4.47538C10.7982 4.47538 8.70675 5.34249 6.99304 7.07671C5.27934 8.81093 4.42248 10.9274 4.42248 13.4262C4.42248 15.925 5.27934 18.0415 6.99304 19.7757C8.70675 21.5099 10.7982 22.377 13.2674 22.377Z" fill="#1C1B1F"/>
</g>
</svg>
