<svg width="16" height="15" viewBox="0 0 16 15" fill="none" xmlns="http://www.w3.org/2000/svg">
<path d="M14.1805 6.67821V2.22946C14.1805 1.32484 13.4445 0.588867 12.5399 0.588867H3.46003C2.55541 0.588867 1.8195 1.32484 1.8195 2.22946V6.67821C0.777125 6.92896 0 7.86855 0 8.98677V12.305C0 12.5682 0.213406 12.7816 0.476656 12.7816H1.81947V13.9345C1.81947 14.1977 2.03288 14.4111 2.29612 14.4111C2.55937 14.4111 2.77278 14.1977 2.77278 13.9345V12.7816H13.2272V13.9345C13.2272 14.1977 13.4406 14.4111 13.7038 14.4111C13.9671 14.4111 14.1805 14.1977 14.1805 13.9345V12.7816H15.5233C15.7865 12.7816 15.9999 12.5682 15.9999 12.305V8.98677C16 7.86855 15.2229 6.92896 14.1805 6.67821ZM2.77281 2.22946C2.77281 1.85052 3.08113 1.54221 3.46003 1.54221H12.5399C12.9189 1.54221 13.2272 1.85052 13.2272 2.22946V6.61202H11.652V5.86002C11.652 4.61409 10.6384 3.60046 9.39247 3.60046H6.60759C5.36166 3.60046 4.34803 4.61412 4.34803 5.86002V6.61199H2.77281V2.22946ZM10.6987 5.86002V6.61199H5.30128V5.86002C5.30128 5.13974 5.88725 4.55377 6.60753 4.55377H9.39244C10.1127 4.55374 10.6987 5.13977 10.6987 5.86002ZM0.953313 11.8283V8.98677C0.953313 8.20299 1.59097 7.56534 2.37475 7.56534H13.6252C14.409 7.56534 15.0466 8.20299 15.0466 8.98677V11.8283H0.953313Z" fill="#8E8E93"/>
</svg>
