<?xml version="1.0" encoding="utf-8"?>
<!-- Generator: Adobe Illustrator 25.1.0, SVG Export Plug-In . SVG Version: 6.00 Build 0)  -->
<svg version="1.1" id="Layer_1" xmlns="http://www.w3.org/2000/svg" xmlns:xlink="http://www.w3.org/1999/xlink" x="0px" y="0px"
	 viewBox="0 0 60 60" style="enable-background:new 0 0 60 60;" xml:space="preserve">
<style type="text/css">
	.st0{fill:#921A1D;}
</style>
<g>
	<g>
		<path class="st0" d="M53.5,39.3l4.1-6.9c0.3-0.5-0.1-1.1-0.6-1.1H37.5c-2-1.9-4.6-3-7.5-3s-5.6,1.1-7.5,3L3,31.4
			c-0.5,0-0.9,0.6-0.6,1.1l4.1,6.9l-4.1,6.9c-0.3,0.5,0.1,1.1,0.6,1.1h4.2L7,50.9c-0.4,4.2,3.3,8.1,7.6,8h30.8
			c4.2,0.1,7.9-3.8,7.6-8l-0.2-3.6H57c0.5,0,0.9-0.6,0.6-1.1L53.5,39.3z M30,29.8c5.2,0,9.5,4.3,9.5,9.5s-4.3,9.5-9.5,9.5
			s-9.5-4.3-9.5-9.5S24.8,29.8,30,29.8z M51.5,51c0.3,3.4-2.7,6.6-6.1,6.5H14.6c-3.4,0.1-6.4-3.1-6.1-6.5l0.2-3.7h13.8
			c2,1.9,4.6,3,7.5,3s5.6-1.1,7.5-3h13.8L51.5,51z"/>
		<path class="st0" d="M9.1,29.2c0.4,0,0.7-0.3,0.8-0.7l0.8-13h6.9l-0.7,8.3c0,0.4,0.3,0.8,0.7,0.8c0.4,0,0.8-0.3,0.8-0.7l0.8-8.4
			H41l0.8,8.4c0,0.4,0.4,0.7,0.7,0.7c0,0,0,0,0.1,0c0.4,0,0.7-0.4,0.7-0.8l-0.7-8.3h6.9l0.8,13c0,0.4,0.3,0.7,0.7,0.7c0,0,0,0,0,0
			c0.4,0,0.7-0.4,0.7-0.8l-0.8-13.6c0-0.4-0.3-0.7-0.7-0.7h-7.7l-0.2-1.9C41.7,6.1,36.2,1,30,1.1c-6.2-0.1-11.7,5-12.2,11.1
			l-0.2,1.9H10c-0.4,0-0.7,0.3-0.7,0.7L8.4,28.4C8.4,28.8,8.7,29.2,9.1,29.2L9.1,29.2z M19.3,12.4c0.5-5.6,5.1-9.8,10.7-9.8
			s10.2,4.2,10.7,9.8l0.2,1.8l-21.8,0L19.3,12.4z"/>
		<path class="st0" d="M26.4,41l-0.6,3.6c-0.1,0.5,0.5,1,1,0.7l3.2-1.7l3.2,1.7c0.5,0.3,1.1-0.2,1-0.7L33.6,41l2.6-2.5
			c0.5-0.6-0.1-1.1-0.4-1.1l-3.6-0.5l-1.6-3.3c-0.2-0.5-1-0.5-1.2,0l-1.6,3.3l-3.6,0.5c-0.5,0.1-0.8,0.8-0.4,1.1L26.4,41z"/>
	</g>
</g>
</svg>
