<svg width="29" height="30" viewBox="0 0 29 30" fill="none" xmlns="http://www.w3.org/2000/svg">
<path d="M17.0223 28.3215H11.8729C7.01837 28.3215 4.59045 28.3215 3.08298 26.7519C1.57422 25.1836 1.57422 22.6577 1.57422 17.6072V14.9287C1.57422 9.87821 1.57422 7.35232 3.08298 5.78402C4.59045 4.21437 7.01837 4.21437 11.8729 4.21437H17.0223C21.8768 4.21437 24.3047 4.21437 25.8122 5.78402C27.321 7.35232 27.321 9.87821 27.321 14.9287V17.6072C27.321 22.6577 27.321 25.1836 25.8122 26.7519C24.9716 27.6278 23.8452 28.0148 22.1716 28.1849M8.01091 4.21437V2.20544M20.8843 4.21437V2.20544M26.6773 10.9108H12.8384M1.57422 10.9108H6.56265" stroke="white" stroke-width="2.5" stroke-linecap="round"/>
<path d="M22.1707 21.6251C22.1707 21.9803 22.0351 22.321 21.7937 22.5722C21.5522 22.8233 21.2248 22.9644 20.8834 22.9644C20.5419 22.9644 20.2145 22.8233 19.9731 22.5722C19.7317 22.321 19.596 21.9803 19.596 21.6251C19.596 21.2699 19.7317 20.9293 19.9731 20.6781C20.2145 20.427 20.5419 20.2859 20.8834 20.2859C21.2248 20.2859 21.5522 20.427 21.7937 20.6781C22.0351 20.9293 22.1707 21.2699 22.1707 21.6251ZM22.1707 16.268C22.1707 16.6232 22.0351 16.9638 21.7937 17.215C21.5522 17.4662 21.2248 17.6073 20.8834 17.6073C20.5419 17.6073 20.2145 17.4662 19.9731 17.215C19.7317 16.9638 19.596 16.6232 19.596 16.268C19.596 15.9128 19.7317 15.5721 19.9731 15.321C20.2145 15.0698 20.5419 14.9287 20.8834 14.9287C21.2248 14.9287 21.5522 15.0698 21.7937 15.321C22.0351 15.5721 22.1707 15.9128 22.1707 16.268ZM15.734 21.6251C15.734 21.9803 15.5984 22.321 15.357 22.5722C15.1155 22.8233 14.7881 22.9644 14.4467 22.9644C14.1053 22.9644 13.7778 22.8233 13.5364 22.5722C13.295 22.321 13.1593 21.9803 13.1593 21.6251C13.1593 21.2699 13.295 20.9293 13.5364 20.6781C13.7778 20.427 14.1053 20.2859 14.4467 20.2859C14.7881 20.2859 15.1155 20.427 15.357 20.6781C15.5984 20.9293 15.734 21.2699 15.734 21.6251ZM15.734 16.268C15.734 16.6232 15.5984 16.9638 15.357 17.215C15.1155 17.4662 14.7881 17.6073 14.4467 17.6073C14.1053 17.6073 13.7778 17.4662 13.5364 17.215C13.295 16.9638 13.1593 16.6232 13.1593 16.268C13.1593 15.9128 13.295 15.5721 13.5364 15.321C13.7778 15.0698 14.1053 14.9287 14.4467 14.9287C14.7881 14.9287 15.1155 15.0698 15.357 15.321C15.5984 15.5721 15.734 15.9128 15.734 16.268ZM9.29733 21.6251C9.29733 21.9803 9.1617 22.321 8.92028 22.5722C8.67886 22.8233 8.35142 22.9644 8.00999 22.9644C7.66857 22.9644 7.34113 22.8233 7.09971 22.5722C6.85829 22.321 6.72266 21.9803 6.72266 21.6251C6.72266 21.2699 6.85829 20.9293 7.09971 20.6781C7.34113 20.427 7.66857 20.2859 8.00999 20.2859C8.35142 20.2859 8.67886 20.427 8.92028 20.6781C9.1617 20.9293 9.29733 21.2699 9.29733 21.6251ZM9.29733 16.268C9.29733 16.6232 9.1617 16.9638 8.92028 17.215C8.67886 17.4662 8.35142 17.6073 8.00999 17.6073C7.66857 17.6073 7.34113 17.4662 7.09971 17.215C6.85829 16.9638 6.72266 16.6232 6.72266 16.268C6.72266 15.9128 6.85829 15.5721 7.09971 15.321C7.34113 15.0698 7.66857 14.9287 8.00999 14.9287C8.35142 14.9287 8.67886 15.0698 8.92028 15.321C9.1617 15.5721 9.29733 15.9128 9.29733 16.268Z" fill="white"/>
</svg>
