<svg width="49" height="49" viewBox="0 0 49 49" fill="none" xmlns="http://www.w3.org/2000/svg">
<path d="M8.16667 31.125C8.73448 31.125 9.13225 30.6768 9.39181 30.2377C9.67116 29.765 9.90539 29.1144 10.0954 28.3543C10.4774 26.8264 10.7083 24.7421 10.7083 22.4584C10.7083 20.1746 10.4774 18.0903 10.0954 16.5624C9.90539 15.8023 9.67116 15.1517 9.39181 14.679C9.13225 14.2399 8.73448 13.7917 8.16667 13.7917C7.59886 13.7917 7.20109 14.2399 6.94152 14.679C6.66218 15.1517 6.42795 15.8023 6.23792 16.5624C5.85594 18.0903 5.625 20.1746 5.625 22.4584C5.625 24.7421 5.85594 26.8264 6.23792 28.3543C6.42795 29.1144 6.66218 29.765 6.94152 30.2377C7.20109 30.6768 7.59886 31.125 8.16667 31.125Z" stroke="#222222"/>
<path d="M40.8332 31.125C41.384 31.125 41.7789 30.6985 42.0426 30.2617C42.3245 29.7946 42.5649 29.1426 42.7619 28.3543C43.1576 26.7715 43.3748 24.6512 43.3748 22.4584C43.3748 20.2655 43.1576 18.1452 42.7619 16.5624C42.5649 15.7741 42.3245 15.1221 42.0426 14.655C41.7789 14.2182 41.384 13.7917 40.8332 13.7917" stroke="#222222" stroke-linecap="round"/>
<path d="M40.8332 13.2708C40.8332 13.2708 33.6873 15.3125 24.4998 15.3125C15.3123 15.3125 8.1665 13.2708 8.1665 13.2708" stroke="#222222" stroke-linecap="round"/>
<path d="M8.16683 31.6458C8.16683 31.6458 13.28 30.1849 20.4168 29.7347M40.8335 31.6458C40.8335 31.6458 35.7204 30.1849 28.5835 29.7347" stroke="#222222" stroke-linecap="round"/>
<path d="M21.4375 15.3125V22.4583M27.5625 15.3125V22.4583" stroke="#222222" stroke-linecap="round"/>
<circle cx="24.4998" cy="26.5416" r="4.58333" stroke="#222222"/>
<path d="M20.4167 29.6042L15.3125 33.6875L18.375 34.7084L20.4167 37.7709L24.5 31.6459L28.5833 37.7709L30.625 34.7084L33.6875 33.6875L28.5833 29.6042" stroke="#222222" stroke-linecap="round" stroke-linejoin="round"/>
</svg>
