<?xml version="1.0" encoding="utf-8"?>
<!-- Generator: Adobe Illustrator 27.3.1, SVG Export Plug-In . SVG Version: 6.00 Build 0)  -->
<svg version="1.1" id="Layer_1" xmlns="http://www.w3.org/2000/svg" xmlns:xlink="http://www.w3.org/1999/xlink" x="0px" y="0px"
	 viewBox="0 0 60 60" style="enable-background:new 0 0 60 60;" xml:space="preserve">
<style type="text/css">
	.st0{fill:#911A1D;}
</style>
<g>
	<path class="st0" d="M30,1.2c8,0,15.2,3.2,20.4,8.4c5.2,5.2,8.4,12.4,8.4,20.4s-3.2,15.2-8.4,20.4C45.2,55.6,38,58.8,30,58.8
		c-8,0-15.2-3.2-20.4-8.4C4.4,45.2,1.2,38,1.2,30S4.4,14.8,9.6,9.6C14.8,4.4,22,1.2,30,1.2L30,1.2z M27.6,15.8
		c0-0.9,0.7-1.6,1.6-1.6s1.6,0.7,1.6,1.6v14.5l10.9,6.5c0.7,0.4,1,1.4,0.6,2.2c-0.4,0.7-1.4,1-2.2,0.6l-11.6-6.9
		c-0.5-0.3-0.9-0.8-0.9-1.4L27.6,15.8L27.6,15.8z M48.1,11.9C43.5,7.2,37.1,4.4,30,4.4s-13.5,2.9-18.1,7.5S4.4,22.9,4.4,30
		s2.9,13.5,7.5,18.1s11.1,7.5,18.1,7.5s13.5-2.9,18.1-7.5s7.5-11.1,7.5-18.1S52.8,16.5,48.1,11.9L48.1,11.9z"/>
</g>
</svg>
