<?xml version="1.0" encoding="utf-8"?>
<!-- Generator: Adobe Illustrator 25.1.0, SVG Export Plug-In . SVG Version: 6.00 Build 0)  -->
<svg version="1.1"
	 id="Layer_1" shape-rendering="geometricPrecision" text-rendering="geometricPrecision" image-rendering="optimizeQuality"
	 xmlns="http://www.w3.org/2000/svg" xmlns:xlink="http://www.w3.org/1999/xlink" x="0px" y="0px" viewBox="0 0 60 60"
	 style="enable-background:new 0 0 60 60;" xml:space="preserve">
<style type="text/css">
	.st0{fill-rule:evenodd;clip-rule:evenodd;}
</style>
<path class="st0" d="M5.6,3.3h3.1c0.2,0,0.5,0.2,0.5,0.5v29.7l-0.1,0.1c-1.4,1.4-2.1,3.1-2.3,4.9C6.7,40.1,7.1,42,8,43.6
	c0.3,0.5,0.6,1,1,1.5l0.1,0.2v12.7h6.4v-8.3c0.8,0.2,1.7,0.3,2.5,0.2c0.5,0,1-0.1,1.5-0.3v8.3h6.4V44.6l4-4.1v17.5h1.4
	c0.1,0,0.2,0.1,0.2,0.2v1.4c0,0.1-0.1,0.2-0.2,0.2H3.7c-0.1,0-0.2-0.1-0.2-0.2v-1.4c0-0.1,0.1-0.2,0.2-0.2h1.4V3.7
	C5.1,3.5,5.3,3.3,5.6,3.3z M40.1,11.9c0.4,2.1,2.5,4.1,4.5,4.5c0.3,0.5,0.7,1.1,1.3,1.6c0.1,0.1,0.2,0.3,0.2,0.4
	c0,0.1,0,0.3-0.1,0.4L19.9,45c-1.3,1.3-3.1,1.1-4.8,0.2c-0.7-0.4-1.4-0.9-2-1.5c-0.6-0.6-1.1-1.3-1.5-2c-1-1.8-1.1-3.9,0.3-5.3
	l25.7-25.7c0.1-0.1,0.3-0.2,0.4-0.2c0.1,0,0.3,0.1,0.4,0.2C39.1,11.2,39.6,11.6,40.1,11.9z M44.6,31.8c2.1,0,3.9,0.8,5.3,2.2
	c1.3,1.3,2.2,3.2,2.2,5.3c0,2.1-0.8,3.9-2.2,5.3l0,0c-1.3,1.3-3.2,2.2-5.2,2.2c-0.8,0-1.6-0.1-2.3-0.4c0,0-0.1,0-0.1,0
	c-1.1-0.4-2-1-2.9-1.8c-1.3-1.3-2.2-3.2-2.2-5.3c0-2.1,0.8-3.9,2.2-5.3l0,0C40.7,32.7,42.5,31.8,44.6,31.8z M42.5,33
	C42.5,33,42.5,33.1,42.5,33l-0.2,0.5c-0.1,0.2-0.3,0.3-0.6,0.2c-0.1,0-0.2-0.1-0.2-0.3c-0.6,0.3-1.1,0.7-1.6,1.2
	c-1.2,1.2-1.9,2.8-1.9,4.7c0,1.8,0.7,3.5,1.9,4.7C40,44,40,44,40.1,44.1c0,0,0.1,0,0.1,0c0.2-0.1,0.5,0.1,0.5,0.3
	c0,0.1,0,0.1,0.1,0.2c0,0,0,0.1,0.1,0.1c0.2,0.2,0.5,0.3,0.7,0.4c-0.7-1.8-0.9-4.3-0.6-6.7c0.3-2.1,1.1-4.1,2.4-5.6
	C43,32.8,42.8,32.9,42.5,33L42.5,33z M39.3,42c0-0.2,0.2-0.4,0.4-0.4s0.4,0.2,0.4,0.4c0,0.1,0,0.2,0,0.4c0,0.1,0,0.3,0.1,0.4
	c0.1,0.2-0.1,0.5-0.3,0.5c-0.2,0.1-0.5-0.1-0.5-0.3c0-0.1-0.1-0.3-0.1-0.5C39.3,42.3,39.3,42.1,39.3,42L39.3,42z M39.1,39.5
	c0-0.2,0.2-0.4,0.5-0.4c0.2,0,0.4,0.2,0.4,0.5c0,0.1,0,0.2,0,0.3c0,0.2,0,0.4,0,0.5c0,0.2-0.1,0.4-0.4,0.5c0,0,0,0,0,0
	c-0.2,0-0.4-0.1-0.5-0.4c0-0.2,0-0.4-0.1-0.6C39.1,39.7,39.1,39.6,39.1,39.5L39.1,39.5z M39.5,36.8c0.1-0.2,0.3-0.4,0.5-0.3
	c0.2,0.1,0.4,0.3,0.3,0.5c0,0.1,0,0.2-0.1,0.3l-0.1,0.5c0,0.2-0.2,0.4-0.5,0.4c-0.2,0-0.4-0.2-0.4-0.5l0.1-0.5
	C39.5,37.1,39.5,36.9,39.5,36.8L39.5,36.8z M40.5,34.5c0.1-0.2,0.3-0.3,0.6-0.2c0.2,0.1,0.3,0.3,0.2,0.6l-0.3,0.7
	c-0.1,0.2-0.3,0.3-0.6,0.2c-0.2-0.1-0.3-0.3-0.2-0.6L40.5,34.5L40.5,34.5z M43.6,45.8c0-0.2,0.2-0.3,0.4-0.3c0.2,0,0.4,0.1,0.5,0.4
	l0,0.1l0.1,0c1.8,0,3.5-0.7,4.7-1.9l0,0c1.2-1.2,1.9-2.8,1.9-4.7s-0.7-3.5-1.9-4.7c-0.9-0.9-1.9-1.5-3.1-1.8l-0.1,0.1
	c-0.1,0.2-0.4,0.3-0.6,0.2c0,0,0,0,0,0c-0.1-0.1-0.2-0.2-0.2-0.4c-0.2,0-0.5,0-0.7,0c-1.6,1.3-2.5,3.5-2.9,5.8
	c-0.4,2.6-0.1,5.4,0.9,7.1C42.9,45.7,43.3,45.8,43.6,45.8L43.6,45.8z M42.5,43.8c0-0.2,0.1-0.4,0.4-0.5c0.2,0,0.4,0.1,0.5,0.4
	c0,0.1,0,0.2,0.1,0.3c0,0.1,0.1,0.2,0.1,0.3c0.1,0.2,0,0.5-0.2,0.6c-0.2,0.1-0.5,0-0.6-0.2c-0.1-0.1-0.1-0.3-0.2-0.4
	C42.6,44,42.6,43.9,42.5,43.8L42.5,43.8z M42.2,41.1c0-0.2,0.2-0.4,0.5-0.4c0.2,0,0.4,0.2,0.4,0.5c0,0.1,0,0.2,0,0.4
	c0,0.1,0,0.3,0,0.4c0,0.2-0.1,0.4-0.3,0.5c-0.2,0-0.4-0.1-0.5-0.3c0-0.1,0-0.3,0-0.5C42.2,41.4,42.2,41.2,42.2,41.1z M42.3,38.6
	c0-0.2,0.3-0.4,0.5-0.3c0.2,0,0.4,0.3,0.3,0.5c0,0.1,0,0.2,0,0.3c0,0.2,0,0.4,0,0.5c0,0.2-0.2,0.4-0.4,0.4c-0.2,0-0.4-0.2-0.4-0.4
	c0,0,0,0,0,0c0-0.1,0-0.4,0-0.6C42.3,38.9,42.3,38.7,42.3,38.6L42.3,38.6z M43,36c0.1-0.2,0.3-0.3,0.5-0.2c0.2,0.1,0.3,0.3,0.2,0.5
	c0,0.1-0.1,0.2-0.1,0.3l-0.1,0.5c-0.1,0.2-0.3,0.4-0.5,0.3c-0.2-0.1-0.4-0.3-0.3-0.5l0.1-0.5C42.9,36.3,42.9,36.1,43,36L43,36z
	 M44.1,33.8c0.1-0.2,0.4-0.3,0.6-0.2c0,0,0,0,0,0c0.2,0.1,0.3,0.4,0.2,0.6c0,0,0,0,0,0l-0.4,0.7c-0.1,0.2-0.4,0.3-0.6,0.2
	c-0.2-0.1-0.3-0.4-0.2-0.6c0,0,0,0,0,0L44.1,33.8L44.1,33.8z M37.3,23c0.2-0.2,0.6-0.2,0.9,0c0.2,0.2,0.2,0.6,0,0.9L20.5,41.5
	c-0.2,0.2-0.6,0.2-0.9,0c-0.2-0.2-0.2-0.6,0-0.9L37.3,23L37.3,23z M53.2,0.3l3.1,3.1c0.2,0.2,0.2,0.4,0.2,0.6c0,0.2-0.1,0.4-0.2,0.5
	l-0.1,0.1l-3,3c-0.2,0.2-0.4,0.2-0.6,0.2c-0.1,0-0.3,0-0.4-0.1c-0.5,0.5-1.1,1.1-1.8,1.7c-1.6,1.5-3.3,3.1-4.5,4.6
	c-0.5,0.6-0.7,1.1-0.6,1.5c0.1,0.5,0.6,1.1,1.3,1.8c0.4,0.4,0.5,0.8,0.5,1.3c0,0.4-0.2,0.9-0.5,1.2L20.7,45.8
	c-1.7,1.7-4.1,1.6-6.2,0.4c-0.8-0.4-1.6-1-2.2-1.7c-0.7-0.7-1.3-1.5-1.7-2.3c-1.2-2.3-1.4-4.8,0.5-6.8L36.9,9.8
	c0.4-0.4,0.8-0.5,1.3-0.5c0.5,0,0.9,0.2,1.3,0.5c0.7,0.7,1.2,1.1,1.8,1.2c0.4,0.1,0.9-0.1,1.5-0.5c1.4-1.1,3.1-2.9,4.7-4.6
	c0.6-0.6,1.1-1.2,1.6-1.7c-0.1-0.1-0.1-0.2-0.1-0.4c0-0.2,0.1-0.4,0.2-0.5l0.1-0.1l3-3c0.2-0.2,0.4-0.2,0.6-0.2
	C52.8,0.1,53,0.1,53.2,0.3L53.2,0.3L53.2,0.3z M9.7,1.2h5c0.3,0,0.5,0.2,0.5,0.5v0h1.8c0.1,0,0.2,0.1,0.2,0.2v0.8
	c0,0.1-0.1,0.2-0.2,0.2h-1.8v0c0,0.3-0.2,0.5-0.5,0.5h-5c-0.3,0-0.5-0.2-0.5-0.5v0H7.4c-0.1,0-0.2-0.1-0.2-0.2V1.9
	c0-0.1,0.1-0.2,0.2-0.2h1.8v0C9.2,1.4,9.5,1.2,9.7,1.2z M18,1.7h1.8v0c0-0.3,0.2-0.5,0.5-0.5h5c0.3,0,0.5,0.2,0.5,0.5v0h1.8
	c0.1,0,0.2,0.1,0.2,0.2v0.8c0,0.1-0.1,0.2-0.2,0.2h-1.8v0c0,0.3-0.2,0.5-0.5,0.5h-5c-0.3,0-0.5-0.2-0.5-0.5v0H18
	c-0.1,0-0.2-0.1-0.2-0.2V1.9C17.8,1.8,17.9,1.7,18,1.7z M26.5,3.3h3.1c0.2,0,0.5,0.2,0.5,0.5v8.8c-0.3,0.2-0.5,0.4-0.7,0.6l-3.3,3.3
	V3.7C26.1,3.5,26.3,3.3,26.5,3.3L26.5,3.3z M16,3.3h3.1c0.2,0,0.5,0.2,0.5,0.5v19.2l-4,4.1V3.7C15.6,3.5,15.8,3.3,16,3.3z"/>
</svg>
