<?xml version="1.0" encoding="utf-8"?>
<!-- Generator: Adobe Illustrator 25.1.0, SVG Export Plug-In . SVG Version: 6.00 Build 0)  -->
<svg version="1.1" id="Layer_1" xmlns="http://www.w3.org/2000/svg" xmlns:xlink="http://www.w3.org/1999/xlink" x="0px" y="0px"
	 viewBox="0 0 60 60" style="enable-background:new 0 0 60 60;" xml:space="preserve">
<g>
	<path d="M6,23.6l4.1-9.2h15.4c-0.2-0.7-0.5-1.3-1-1.9c-0.5-0.6-1.1-1.2-1.8-1.6c-0.7-0.5-1.5-0.8-2.4-1.1c-0.9-0.3-1.8-0.4-2.8-0.4
		H6l4.1-9.2H54l-4.1,9.2H39.3c0.4,0.3,0.8,0.7,1.2,1.1c0.4,0.4,0.7,0.9,1,1.3c0.3,0.5,0.5,0.9,0.7,1.4c0.2,0.5,0.3,0.9,0.4,1.3H54
		l-4.1,9.2h-8.3c-0.6,1.6-1.5,3-2.7,4.4c-1.2,1.4-2.6,2.6-4.2,3.8c-1.6,1.1-3.3,2-5.2,2.8c-1.9,0.7-3.8,1.2-5.7,1.5l23.1,23.8H28.6
		L8,37.2v-8.4h9.1c0.9,0,1.7-0.1,2.6-0.4c0.9-0.3,1.7-0.7,2.4-1.2c0.7-0.5,1.3-1,1.9-1.7c0.5-0.6,0.9-1.3,1.1-2H6L6,23.6z"/>
</g>
</svg>
