<svg width="20" height="24" viewBox="0 0 20 24" fill="none" xmlns="http://www.w3.org/2000/svg">
<path d="M13.7494 21.85C13.7994 22.225 13.6744 22.625 13.3869 22.8875C13.2713 23.0034 13.1339 23.0953 12.9827 23.158C12.8315 23.2208 12.6694 23.2531 12.5057 23.2531C12.342 23.2531 12.1799 23.2208 12.0287 23.158C11.8774 23.0953 11.7401 23.0034 11.6244 22.8875L6.61193 17.875C6.4756 17.7417 6.37194 17.5787 6.30905 17.3987C6.24617 17.2188 6.22576 17.0267 6.24943 16.8375V10.4375L0.261931 2.775C0.0589417 2.51441 -0.0326513 2.18407 0.00716632 1.85616C0.046984 1.52825 0.214975 1.22943 0.474432 1.025C0.711932 0.85 0.974432 0.75 1.24943 0.75H18.7494C19.0244 0.75 19.2869 0.85 19.5244 1.025C19.7839 1.22943 19.9519 1.52825 19.9917 1.85616C20.0315 2.18407 19.9399 2.51441 19.7369 2.775L13.7494 10.4375V21.85ZM3.79943 3.25L8.74943 9.575V16.475L11.2494 18.975V9.5625L16.1994 3.25H3.79943Z" fill="#545454"/>
</svg>
