<?xml version="1.0" encoding="utf-8"?>
<!-- Generator: Adobe Illustrator 25.1.0, SVG Export Plug-In . SVG Version: 6.00 Build 0)  -->
<svg version="1.1" id="Layer_1" xmlns="http://www.w3.org/2000/svg" xmlns:xlink="http://www.w3.org/1999/xlink" x="0px" y="0px"
	 viewBox="0 0 60 60" style="enable-background:new 0 0 60 60;" xml:space="preserve">
<style type="text/css">
	.st0{fill-rule:evenodd;clip-rule:evenodd;}
</style>
<path class="st0" d="M14.8,20.7v32.4c0,1.3-1.1,2.4-2.4,2.4l0,0c-1.3,0-2.4-1.1-2.4-2.4V34H9.2v19.1c0,1.3-1.1,2.4-2.4,2.4l0,0
	c-1.3,0-2.4-1.1-2.4-2.4V20.7H3.6v11.9c0,1-0.8,1.8-1.8,1.8l0,0c-1,0-1.8-0.8-1.8-1.8V19.8c0-2.1,0.7-3.5,2-4.5
	c2.2-1.7,13-1.7,15.2,0c1.3,1,2,2.4,2,4.5v12.8c0,1-0.8,1.8-1.8,1.8l0,0c-1,0-1.8-0.8-1.8-1.8V20.7H14.8z M26.1,4.5
	c0-0.8,0.6-1.4,1.4-1.4c0.8,0,1.4,0.6,1.4,1.4v50.9c0,0.8-0.6,1.4-1.4,1.4c-0.8,0-1.4-0.6-1.4-1.4V4.5z M56.1,19.3
	c0,0.1,0.1,0.1,0.1,0.2l3.7,13.2c0.3,1-0.3,2-1.3,2.3c-1,0.3-2-0.3-2.3-1.3l-3.7-13h-0.1h-0.8v0.8l4.9,19.4h-4.9v12.2
	c0,1.3-1.1,2.4-2.4,2.4l0,0c-1.3,0-2.4-1.1-2.4-2.4V40.9h-0.9v12.2c0,1.3-1.1,2.4-2.4,2.4l0,0c-1.3,0-2.3-1.1-2.4-2.4V40.9h-5.2
	L41.5,21v-0.3h-0.8h-0.1l-3.7,13c-0.3,1-1.3,1.6-2.3,1.3c-1-0.3-1.6-1.3-1.3-2.3L37,19.8h0c0.6-2.1,1-3.5,2.3-4.5
	c2.2-1.7,12.8-1.7,15,0C55.5,16.1,55.7,17.3,56.1,19.3z M46.7,4.5c2.4,0,4.3,1.9,4.3,4.3s-1.9,4.3-4.3,4.3c-2.4,0-4.3-1.9-4.3-4.3
	l0,0C42.4,6.4,44.3,4.5,46.7,4.5z M9.6,4.5c2.4,0,4.3,1.9,4.3,4.3s-1.9,4.3-4.3,4.3s-4.3-1.9-4.3-4.3l0,0C5.3,6.4,7.2,4.5,9.6,4.5
	C9.6,4.5,9.6,4.5,9.6,4.5z"/>
</svg>
