<?xml version="1.0" encoding="utf-8"?>
<!-- Generator: Adobe Illustrator 27.3.1, SVG Export Plug-In . SVG Version: 6.00 Build 0)  -->
<svg version="1.1" id="Layer_1" xmlns="http://www.w3.org/2000/svg" xmlns:xlink="http://www.w3.org/1999/xlink" x="0px" y="0px"
	 viewBox="0 0 60 60" style="enable-background:new 0 0 60 60;" xml:space="preserve">
<style type="text/css">
	.st0{fill:#911A1D;}
</style>
<g>
	<path class="st0" d="M57.1,9.4h-8c-1.2-3-2.1-5.9-5.4-5.5h0c-3.3,0.5-6.6,1.7-9.4,3.5C34,7.6,33.7,7.8,33.4,8
		c-0.8-0.5-1.7-0.8-2.6-0.8h-1.7c-0.9,0-1.8,0.3-2.6,0.8c-3-2.3-6.5-3.7-10.3-4.2c-1.3-0.2-2.7,0.4-3.4,1.5c-0.8,1.2-1.5,2.6-1.9,4
		h-8c-1.2,0-2.1,1-2.1,2.1v5.9c0,1.2,1,2.1,2.1,2.1h1.8V52c0,2.3,1.9,4.2,4.2,4.2c0,0,17.7,0,17.7,0c4.5,0,19.7,0,24.5,0h0
		c2.3,0,4.2-1.9,4.2-4.2V19.5h1.8c1.2,0,2.1-1,2.1-2.1v-5.9C59.2,10.3,58.3,9.4,57.1,9.4L57.1,9.4z M44.1,6c0.5-0.1,1,0.1,1.3,0.6
		c0.8,1.3,1.5,2.7,1.9,4.1c0.9,3.2,0.8,7-2,11.6h0c-0.3,0.4-0.7,0.6-1.2,0.6c-3-0.4-5.8-1.5-8.3-3.1c-0.3-0.2-0.6-0.4-0.9-0.6
		c0.3-0.5,0.5-1.1,0.6-1.7c2.7-0.4,4.7,0.3,5.9,1.9h0c0.4,0.5,1,0.5,1.5,0.2c0.5-0.4,0.6-1,0.2-1.5c-1.2-1.6-3.5-3.2-7.6-2.8v-1.7
		c3.2,0.6,6.6-1.1,7.6-2.8c0.4-0.5,0.3-1.2-0.2-1.5c-0.5-0.4-1.2-0.3-1.5,0.2c-1.3,1.6-3.3,2.3-5.9,1.9c-0.1-0.6-0.2-1.2-0.5-1.7
		C37,8.1,39.3,6.8,44.1,6L44.1,6z M29.1,21.5c1.1,0.1,2.1,0,3.2-0.3c0,3.2,0,11.5,0,32.8l-4.6,0V21.2C28.1,21.4,28.6,21.5,29.1,21.5
		L29.1,21.5z M30.9,9.4c1.3,0,2.4,1.1,2.4,2.5v5v0c0,1.3-1.1,2.4-2.4,2.5h-1.7c-1.3,0-2.4-1.1-2.4-2.5v-5c0-1.4,1.1-2.5,2.4-2.5
		L30.9,9.4z M14.7,6.5c0.3-0.4,0.8-0.7,1.3-0.6c3.3,0.4,6.5,1.7,9.2,3.7c-0.3,0.5-0.5,1.1-0.5,1.7c-2.7,0.4-4.7-0.3-5.9-1.9
		C18.5,9.2,18.2,9,17.9,9c-0.3,0-0.6,0-0.8,0.2c-0.2,0.2-0.4,0.4-0.4,0.7c0,0.3,0,0.6,0.2,0.8c1,1.7,4.4,3.3,7.6,2.8v1.7
		c-4.1-0.4-6.4,1.2-7.6,2.8v0c-0.4,0.5-0.3,1.1,0.2,1.5c0.5,0.4,1.1,0.3,1.5-0.2c1.3-1.6,3.3-2.3,5.9-1.9v0c0.1,0.6,0.3,1.2,0.6,1.7
		c-0.3,0.2-0.5,0.4-0.9,0.6c-2.5,1.6-5.3,2.6-8.2,3.1c-0.5,0.1-1-0.2-1.3-0.6C11.6,17.7,11.6,10.7,14.7,6.5L14.7,6.5z M2.9,11.5
		l7.5,0c-0.3,1.9-0.3,3.9,0.1,5.8H5.8l-2.8,0L2.9,11.5z M6.8,52V19.5h4.2c0.9,2.1,1.9,5.6,4.8,5.5h0c3.3-0.4,6.5-1.5,9.3-3.3
		c-0.7,3.1-2.8,7.8-9.1,11.9c-0.4,0.3-0.6,0.8-0.4,1.2c0.1,0.5,0.6,0.8,1,0.8c3.7-2,6.7-4.9,8.8-8.6v27.1H8.9
		C7.8,54.1,6.9,53.1,6.8,52L6.8,52z M53.2,52L53.2,52c0,1.1-0.9,2-2,2H34.5c0-6.8,0-19.2,0-27.2h0c2,3.5,4.8,6.4,8.2,8.5
		c0.5,0.3,1.2,0.2,1.5-0.3c0.3-0.5,0.2-1.2-0.3-1.5c-6.3-4.1-8.4-8.8-9.1-11.9h0c2.8,1.8,6,2.9,9.4,3.3c2.9,0.1,3.9-3.5,4.8-5.5h4.2
		L53.2,52z M54.2,17.3h-4.7c0.4-1.9,0.4-3.9,0.1-5.8l7.5,0l0,5.8L54.2,17.3z"/>
	<path class="st0" d="M19.5,48.8h-7.5v-6.8c0-0.6-0.5-1.1-1.1-1.1c-0.6,0-1.1,0.5-1.1,1.1v7.9c0,0.3,0.1,0.6,0.3,0.8
		c0.2,0.2,0.5,0.3,0.8,0.3h8.5c0.6,0,1.1-0.5,1.1-1.1C20.6,49.3,20.1,48.9,19.5,48.8L19.5,48.8z"/>
</g>
</svg>
