<?xml version="1.0" encoding="utf-8"?>
<!-- Generator: Adobe Illustrator 25.1.0, SVG Export Plug-In . SVG Version: 6.00 Build 0)  -->
<svg version="1.1" id="Layer_1" xmlns="http://www.w3.org/2000/svg" xmlns:xlink="http://www.w3.org/1999/xlink" x="0px" y="0px"
	 viewBox="0 0 60 60" style="enable-background:new 0 0 60 60;" xml:space="preserve">
<path d="M39.8,2.3C39.8,1,41.1,0,42.7,0c1.6,0,2.8,1,2.8,2.3v10.1c0,1.3-1.3,2.3-2.8,2.3c-1.6,0-2.8-1-2.8-2.3
	C39.8,12.4,39.8,2.3,39.8,2.3z M30.6,29.9l2.9,6.8l7.4,0.7c0.3,0,0.6,0.3,0.5,0.6c0,0,0,0,0,0c0,0.2-0.1,0.3-0.2,0.4l0,0l-5.6,4.9
	l1.6,7.2c0.1,0.3-0.1,0.6-0.4,0.7c0,0,0,0,0,0c-0.2,0-0.3,0-0.5-0.1L30,47.3l-6.3,3.8c-0.3,0.2-0.6,0.1-0.8-0.2
	c-0.1-0.1-0.1-0.3-0.1-0.4l0,0l1.6-7.2l-5.6-4.9c-0.2-0.2-0.2-0.6-0.1-0.8c0.1-0.1,0.3-0.2,0.4-0.2l7.3-0.7l2.9-6.8
	c0.1-0.3,0.5-0.4,0.8-0.3c0,0,0,0,0,0C30.4,29.7,30.5,29.8,30.6,29.9L30.6,29.9z M14.5,2.3C14.5,1,15.7,0,17.3,0s2.8,1,2.8,2.3v10.1
	c0,1.3-1.3,2.3-2.8,2.3s-2.8-1-2.8-2.3V2.3z M3.1,22.1h53.7V10.5c0-0.4-0.2-0.7-0.4-1c-0.3-0.3-0.6-0.4-1-0.4h-5.1
	c-0.9,0-1.6-0.7-1.6-1.6c0-0.9,0.7-1.6,1.6-1.6c0,0,0,0,0,0h5.2c2.5,0,4.5,2,4.6,4.6v45c0,2.5-2,4.5-4.6,4.6H4.6C2,60,0,58,0,55.4
	v-45C0,8,2,5.9,4.6,5.9h5.5c0.9,0,1.6,0.7,1.6,1.6c0,0.9-0.7,1.6-1.6,1.6c0,0,0,0,0,0H4.6c-0.4,0-0.7,0.2-1,0.4
	c-0.3,0.3-0.4,0.6-0.4,1V22.1z M56.9,25.3H3.1v30.2c0,0.4,0.2,0.7,0.4,1c0.3,0.3,0.6,0.4,1,0.4h50.9c0.4,0,0.7-0.2,1-0.4
	c0.3-0.3,0.4-0.6,0.4-1V25.3z M24.6,9.1c-0.9,0-1.6-0.7-1.6-1.6c0-0.9,0.7-1.6,1.6-1.6h10.5c0.9,0,1.6,0.7,1.6,1.6
	c0,0.9-0.7,1.6-1.6,1.6c0,0,0,0,0,0H24.6z"/>
</svg>
