<svg width="14" height="14" viewBox="0 0 14 14" fill="none" xmlns="http://www.w3.org/2000/svg">
<path d="M5 3.50001V9.00001M9 5.00001V10.5M9.33533 12.832L12.5853 11.2073C12.8393 11.0807 13 10.8207 13 10.5367V2.21334C13 1.65601 12.4133 1.29334 11.9147 1.54267L9.33533 2.83201C9.124 2.93801 8.87533 2.93801 8.66467 2.83201L5.33533 1.16801C5.23121 1.11596 5.1164 1.08887 5 1.08887C4.8836 1.08887 4.76879 1.11596 4.66467 1.16801L1.41467 2.79268C1.16 2.92001 1 3.18001 1 3.46334V11.7867C1 12.344 1.58667 12.7067 2.08533 12.4573L4.66467 11.168C4.876 11.062 5.12467 11.062 5.33533 11.168L8.66467 12.8327C8.876 12.938 9.12467 12.938 9.33533 12.8327V12.832Z" stroke="#8E8E93" stroke-linecap="round" stroke-linejoin="round"/>
</svg>
