<?xml version="1.0" encoding="utf-8"?>
<!-- Generator: Adobe Illustrator 27.3.1, SVG Export Plug-In . SVG Version: 6.00 Build 0)  -->
<svg version="1.1"
	 id="Layer_1" xmlns:svg="http://www.w3.org/2000/svg" xmlns:inkscape="http://www.inkscape.org/namespaces/inkscape" xmlns:dc="http://purl.org/dc/elements/1.1/" xmlns:rdf="http://www.w3.org/1999/02/22-rdf-syntax-ns#" xmlns:sodipodi="http://sodipodi.sourceforge.net/DTD/sodipodi-0.dtd" xmlns:cc="http://creativecommons.org/ns#"
	 xmlns="http://www.w3.org/2000/svg" xmlns:xlink="http://www.w3.org/1999/xlink" x="0px" y="0px" viewBox="0 0 60 60"
	 style="enable-background:new 0 0 60 60;" xml:space="preserve">
<style type="text/css">
	.st0{fill:#911A1D;}
</style>
<g>
	<path class="st0" d="M54.2,55.6L54.2,55.6c1.9,0,3.4-1.6,3.4-3.4V31.7c0,0,0,0,0,0c0-1.9-1.5-3.4-3.4-3.4c0,0,0,0,0,0h-4.6
		c0.2-1.2,0.5-2.3,1.1-3.2c1.1-1.6,4.3-4,6.3-4.8c1.7-0.7,2.5-2.7,1.8-4.3l-3.6-9.3c-0.7-1.8-2.7-2.6-4.5-1.9c0,0,0,0,0,0
		c-6.8,3-11.9,7.7-14.9,13.9c-2.3,4.8-3.6,10-3.6,19.5v14c0,1.9,1.5,3.4,3.4,3.4c0,0,0,0,0,0L54.2,55.6
		C54.2,55.6,54.2,55.6,54.2,55.6L54.2,55.6z M22.8,55.6c1.9,0,3.4-1.6,3.4-3.4V31.7c0,0,0,0,0,0c0-1.9-1.5-3.4-3.4-3.4c0,0,0,0,0,0
		h-4.6c0.2-1.2,0.5-2.3,1.1-3.2c1.1-1.6,4.3-4,6.3-4.8c1.7-0.7,2.5-2.7,1.8-4.4l-3.6-9.3c-0.7-1.8-2.7-2.6-4.5-1.9c0,0,0,0,0,0
		c-6.8,3-11.9,7.7-14.9,14c-2.3,4.8-3.5,10-3.5,19.5v14c0,1.9,1.5,3.4,3.4,3.4c0,0,0,0,0,0L22.8,55.6C22.8,55.6,22.8,55.6,22.8,55.6
		L22.8,55.6z M54.2,53.5H35.7c-0.7,0-1.3-0.6-1.3-1.3c0,0,0,0,0,0v-14c0-9.3,1.1-14,3.3-18.6c0,0,0,0,0,0
		c2.8-5.8,7.5-10.2,13.9-12.9c0.7-0.3,1.5,0,1.7,0.7c0,0,0,0,0,0l3.6,9.3c0,0,0,0,0,0c0.3,0.7,0,1.4-0.7,1.7
		c-2.5,1.1-5.7,3.3-7.3,5.6c0,0,0,0,0,0c-1.1,1.7-1.3,3.6-1.6,5.2c-0.1,0.6,0.2,1.1,0.8,1.2c0.1,0,0.1,0,0.2,0h5.9
		c0.7,0,1.3,0.6,1.3,1.3v20.4c0,0,0,0,0,0C55.5,52.9,55,53.5,54.2,53.5L54.2,53.5z M22.8,53.5H4.3c-0.7,0-1.3-0.6-1.3-1.3
		c0,0,0,0,0,0v-14c0-9.3,1.1-14,3.3-18.6c0,0,0,0,0,0c2.8-5.8,7.5-10.2,13.9-12.9c0.7-0.3,1.5,0,1.7,0.7c0,0,0,0,0,0l3.6,9.3
		c0,0,0,0,0,0c0.3,0.7,0,1.4-0.7,1.7c-2.5,1.1-5.7,3.3-7.3,5.6c0,0,0,0,0,0c-1.1,1.7-1.3,3.6-1.6,5.2c-0.1,0.6,0.2,1.1,0.8,1.2
		c0.1,0,0.1,0,0.2,0h5.9c0.7,0,1.3,0.6,1.3,1.3v20.4c0,0,0,0,0,0C24.1,52.9,23.5,53.5,22.8,53.5L22.8,53.5z"/>
</g>
</svg>
