<?xml version="1.0" encoding="utf-8"?>
<!-- Generator: Adobe Illustrator 25.1.0, SVG Export Plug-In . SVG Version: 6.00 Build 0)  -->
<svg version="1.1" id="Layer_1" xmlns="http://www.w3.org/2000/svg" xmlns:xlink="http://www.w3.org/1999/xlink" x="0px" y="0px"
	 viewBox="0 0 60 60" style="enable-background:new 0 0 60 60;" xml:space="preserve">
<style type="text/css">
	.st0{fill:#237BFF;}
	.st1{fill:none;stroke:#EFF4FC;stroke-width:2;stroke-linecap:round;stroke-linejoin:round;}
</style>
<path class="st0" d="M30,0L30,0c16.6,0,30,13.4,30,30l0,0c0,16.6-13.4,30-30,30l0,0C13.4,60,0,46.6,0,30l0,0C0,13.4,13.4,0,30,0z"/>
<path class="st1" d="M10.1,13.1H22c2.1,0,4.1,0.8,5.6,2.3c1.5,1.5,2.3,3.5,2.3,5.6v27.8c0-1.6-0.6-3.1-1.7-4.2
	c-1.1-1.1-2.6-1.7-4.2-1.7H10.1V13.1z"/>
<path class="st1" d="M49.9,13.1H38c-2.1,0-4.1,0.8-5.6,2.3c-1.5,1.5-2.3,3.5-2.3,5.6v27.8c0-1.6,0.6-3.1,1.7-4.2
	c1.1-1.1,2.6-1.7,4.2-1.7h13.9V13.1z"/>
</svg>
