<?xml version="1.0" encoding="utf-8"?>
<!-- Generator: Adobe Illustrator 25.1.0, SVG Export Plug-In . SVG Version: 6.00 Build 0)  -->
<svg version="1.1" id="Layer_1" xmlns="http://www.w3.org/2000/svg" xmlns:xlink="http://www.w3.org/1999/xlink" x="0px" y="0px"
	 viewBox="0 0 60 60" style="enable-background:new 0 0 60 60;" xml:space="preserve">
<style type="text/css">
	.st0{fill:#EE7F50;}
	.st1{fill:none;stroke:#FFFFFF;stroke-width:2;stroke-linecap:round;stroke-linejoin:round;}
</style>
<path class="st0" d="M6,0h48c3.3,0,6,2.7,6,6v48c0,3.3-2.7,6-6,6H6c-3.3,0-6-2.7-6-6V6C0,2.7,2.7,0,6,0z"/>
<path class="st1" d="M30,36.3c8.1,0,14.6-6.5,14.6-14.6S38.1,7.1,30,7.1s-14.6,6.5-14.6,14.6S21.9,36.3,30,36.3z"/>
<path class="st1" d="M22.1,33.9l-2.5,19L30,46.7l10.4,6.3l-2.5-19"/>
</svg>
