<?xml version="1.0" encoding="utf-8"?>
<!-- Generator: Adobe Illustrator 25.1.0, SVG Export Plug-In . SVG Version: 6.00 Build 0)  -->
<svg version="1.1" id="Layer_1" xmlns="http://www.w3.org/2000/svg" xmlns:xlink="http://www.w3.org/1999/xlink" x="0px" y="0px"
	 viewBox="0 0 61 60" style="enable-background:new 0 0 61 60;" xml:space="preserve">
<style type="text/css">
	.st0{fill:#47BB8E;}
	.st1{fill:none;stroke:#FFFFFF;stroke-width:2;stroke-linecap:round;stroke-linejoin:round;}
</style>
<path class="st0" d="M6.5,0h48c3.3,0,6,2.7,6,6v48c0,3.3-2.7,6-6,6h-48c-3.3,0-6-2.7-6-6V6C0.5,2.7,3.2,0,6.5,0z"/>
<path class="st1" d="M48.4,36v7.9c0,1.1-0.4,2.1-1.2,2.8s-1.8,1.2-2.8,1.2H16.6c-1.1,0-2.1-0.4-2.8-1.2C13,46,12.6,45,12.6,43.9V36"
	/>
<path class="st1" d="M40.4,22.1l-9.9-9.9l-9.9,9.9"/>
<path class="st1" d="M30.5,12.1V36"/>
</svg>
