<?xml version="1.0" encoding="utf-8"?>
<!-- Generator: Adobe Illustrator 25.1.0, SVG Export Plug-In . SVG Version: 6.00 Build 0)  -->
<svg version="1.1" id="Layer_1" xmlns="http://www.w3.org/2000/svg" xmlns:xlink="http://www.w3.org/1999/xlink" x="0px" y="0px"
	 viewBox="0 0 60 60" style="enable-background:new 0 0 60 60;" xml:space="preserve">
<style type="text/css">
	.st0{fill:#000;}
</style>
<g>
	<path class="st0" d="M16.8,24.8c2,3.6,4.2,7,7.2,10.1c3,3.1,6.6,6,11.4,8.4c0.4,0.2,0.7,0.2,1,0.1c0.5-0.2,0.9-0.5,1.4-1
		c0.4-0.4,0.8-0.9,1.3-1.5c1.8-2.4,4.1-5.4,7.3-3.9c0.1,0,0.1,0.1,0.2,0.1l10.7,6.1c0,0,0.1,0.1,0.1,0.1c1.4,1,2,2.5,2,4.2
		c0,1.7-0.6,3.7-1.6,5.3c-1.2,2.2-3,3.6-5.1,4.5c-2,0.9-4.2,1.4-6.3,1.7c-3.3,0.5-6.5,0.2-9.7-0.8c-3.1-1-6.3-2.6-9.7-4.7l-0.3-0.2
		c-1.6-1-3.3-2-5-3.3C15.5,45.4,9.3,38.7,5.2,31.3C1.8,25.1-0.1,18.5,1,12.1C1.5,8.6,3,5.5,5.6,3.4c2.3-1.8,5.3-2.8,9.3-2.5
		c0.5,0,0.9,0.3,1.1,0.7l6.8,11.6c1,1.3,1.1,2.6,0.6,3.9c-0.5,1.1-1.4,2-2.6,2.9c-0.4,0.3-0.8,0.6-1.3,1
		C18,22.1,16.2,23.3,16.8,24.8L16.8,24.8L16.8,24.8L16.8,24.8z"/>
</g>
</svg>
